<mxfile host="app.diagrams.net" agent="Mozilla/5.0 (Windows NT 10.0; Win64; x64) AppleWebKit/537.36 (KHTML, like Gecko) Chrome/132.0.0.0 Safari/537.36" version="26.0.6">
  <diagram name="페이지-1" id="jm2bXxsW1oX2RCR20cpK">
    <mxGraphModel dx="1661" dy="784" grid="1" gridSize="10" guides="1" tooltips="1" connect="1" arrows="1" fold="1" page="1" pageScale="1" pageWidth="827" pageHeight="1169" math="0" shadow="0">
      <root>
        <mxCell id="0" />
        <mxCell id="1" parent="0" />
        <mxCell id="UOgNXcdXewa_iAYpPX4r-43" value="" style="edgeStyle=orthogonalEdgeStyle;rounded=0;orthogonalLoop=1;jettySize=auto;html=1;strokeColor=#263BFF;" edge="1" parent="1" source="UOgNXcdXewa_iAYpPX4r-1" target="UOgNXcdXewa_iAYpPX4r-42">
          <mxGeometry relative="1" as="geometry">
            <Array as="points">
              <mxPoint x="-80" y="190" />
              <mxPoint x="-80" y="190" />
            </Array>
          </mxGeometry>
        </mxCell>
        <mxCell id="UOgNXcdXewa_iAYpPX4r-1" value="UsernamePassword&lt;div&gt;Filter&lt;/div&gt;&lt;div&gt;(username / passwd 전달)&lt;br&gt;&lt;div&gt;&lt;br&gt;&lt;/div&gt;&lt;/div&gt;" style="rounded=0;whiteSpace=wrap;html=1;" vertex="1" parent="1">
          <mxGeometry x="-110" y="240" width="120" height="370" as="geometry" />
        </mxCell>
        <mxCell id="UOgNXcdXewa_iAYpPX4r-2" value="api 요청지점" style="rounded=0;whiteSpace=wrap;html=1;" vertex="1" parent="1">
          <mxGeometry x="720" y="170" width="120" height="530" as="geometry" />
        </mxCell>
        <mxCell id="UOgNXcdXewa_iAYpPX4r-4" value="UserDetails&lt;div&gt;(User 정보 저장)&lt;/div&gt;" style="rounded=0;whiteSpace=wrap;html=1;" vertex="1" parent="1">
          <mxGeometry x="-300" y="250" width="120" height="60" as="geometry" />
        </mxCell>
        <mxCell id="UOgNXcdXewa_iAYpPX4r-33" value="" style="edgeStyle=orthogonalEdgeStyle;rounded=0;orthogonalLoop=1;jettySize=auto;html=1;strokeColor=light-dark(#f41f1f, #ededed);" edge="1" parent="1">
          <mxGeometry relative="1" as="geometry">
            <mxPoint x="359.9999999999998" y="170" as="sourcePoint" />
            <mxPoint x="359.9999999999998" y="80" as="targetPoint" />
          </mxGeometry>
        </mxCell>
        <mxCell id="UOgNXcdXewa_iAYpPX4r-5" value="Oauth2Authorization&lt;div&gt;RequetRedirect&lt;/div&gt;&lt;div&gt;Filter&lt;/div&gt;&lt;div&gt;(자체 JWT AccessToken + RefreshToken&amp;nbsp;&lt;/div&gt;&lt;div&gt;발급)&lt;/div&gt;" style="rounded=0;whiteSpace=wrap;html=1;" vertex="1" parent="1">
          <mxGeometry x="330" y="170" width="120" height="530" as="geometry" />
        </mxCell>
        <mxCell id="UOgNXcdXewa_iAYpPX4r-6" value="OnceperRequest&lt;br&gt;&lt;div&gt;Filter&lt;/div&gt;&lt;div&gt;(JWT Filter)&lt;/div&gt;&lt;div&gt;(자체 JWT 토큰 검증)&lt;br&gt;&lt;div&gt;&lt;br&gt;&lt;/div&gt;&lt;/div&gt;" style="rounded=0;whiteSpace=wrap;html=1;" vertex="1" parent="1">
          <mxGeometry x="-533.5" y="240" width="120" height="370" as="geometry" />
        </mxCell>
        <mxCell id="UOgNXcdXewa_iAYpPX4r-7" value="&lt;span style=&quot;text-wrap-mode: nowrap;&quot;&gt;SecurityContext&lt;/span&gt;&lt;div style=&quot;text-wrap-mode: nowrap;&quot;&gt;Holder&lt;/div&gt;" style="rounded=0;whiteSpace=wrap;html=1;" vertex="1" parent="1">
          <mxGeometry x="-300" y="350" width="120" height="60" as="geometry" />
        </mxCell>
        <mxCell id="UOgNXcdXewa_iAYpPX4r-8" value="외부 인증 서버 ( naver, google...)" style="rounded=0;whiteSpace=wrap;html=1;" vertex="1" parent="1">
          <mxGeometry x="180" y="20" width="420" height="60" as="geometry" />
        </mxCell>
        <mxCell id="UOgNXcdXewa_iAYpPX4r-18" value="" style="edgeStyle=orthogonalEdgeStyle;rounded=0;orthogonalLoop=1;jettySize=auto;html=1;strokeColor=light-dark(#f320bb, #ededed);" edge="1" parent="1" source="UOgNXcdXewa_iAYpPX4r-9" target="UOgNXcdXewa_iAYpPX4r-6">
          <mxGeometry relative="1" as="geometry">
            <Array as="points">
              <mxPoint x="-560" y="375" />
              <mxPoint x="-560" y="375" />
            </Array>
          </mxGeometry>
        </mxCell>
        <mxCell id="UOgNXcdXewa_iAYpPX4r-9" value="client #1" style="rounded=0;whiteSpace=wrap;html=1;" vertex="1" parent="1">
          <mxGeometry x="-769" y="350" width="120" height="60" as="geometry" />
        </mxCell>
        <mxCell id="UOgNXcdXewa_iAYpPX4r-28" value="" style="edgeStyle=orthogonalEdgeStyle;rounded=0;orthogonalLoop=1;jettySize=auto;html=1;" edge="1" parent="1" source="UOgNXcdXewa_iAYpPX4r-11" target="UOgNXcdXewa_iAYpPX4r-1">
          <mxGeometry relative="1" as="geometry">
            <Array as="points">
              <mxPoint x="-140" y="520" />
              <mxPoint x="-140" y="520" />
            </Array>
          </mxGeometry>
        </mxCell>
        <mxCell id="UOgNXcdXewa_iAYpPX4r-11" value="검증 실패" style="rounded=0;whiteSpace=wrap;html=1;" vertex="1" parent="1">
          <mxGeometry x="-280" y="490" width="120" height="60" as="geometry" />
        </mxCell>
        <mxCell id="UOgNXcdXewa_iAYpPX4r-12" value="" style="strokeWidth=2;html=1;shape=mxgraph.flowchart.annotation_2;align=left;labelPosition=right;pointerEvents=1;" vertex="1" parent="1">
          <mxGeometry x="10" y="480" width="123.5" height="100" as="geometry" />
        </mxCell>
        <mxCell id="UOgNXcdXewa_iAYpPX4r-13" value="&lt;span style=&quot;text-wrap-mode: nowrap;&quot;&gt;SecurityContext&lt;/span&gt;&lt;div style=&quot;text-wrap-mode: nowrap;&quot;&gt;Holder&lt;/div&gt;" style="rounded=0;whiteSpace=wrap;html=1;" vertex="1" parent="1">
          <mxGeometry x="133.5" y="455" width="120" height="60" as="geometry" />
        </mxCell>
        <mxCell id="UOgNXcdXewa_iAYpPX4r-29" value="" style="edgeStyle=orthogonalEdgeStyle;rounded=0;orthogonalLoop=1;jettySize=auto;html=1;strokeColor=light-dark(#e71313, #ededed);" edge="1" parent="1" source="UOgNXcdXewa_iAYpPX4r-14" target="UOgNXcdXewa_iAYpPX4r-5">
          <mxGeometry relative="1" as="geometry">
            <Array as="points">
              <mxPoint x="310" y="580" />
              <mxPoint x="310" y="580" />
            </Array>
          </mxGeometry>
        </mxCell>
        <mxCell id="UOgNXcdXewa_iAYpPX4r-14" value="검증 실패" style="rounded=0;whiteSpace=wrap;html=1;" vertex="1" parent="1">
          <mxGeometry x="133.5" y="550" width="120" height="60" as="geometry" />
        </mxCell>
        <mxCell id="UOgNXcdXewa_iAYpPX4r-19" value="&lt;font style=&quot;color: rgb(255, 51, 255);&quot;&gt;이미 한번 로그인&lt;/font&gt;&lt;div&gt;&lt;font style=&quot;color: rgb(255, 51, 255);&quot;&gt;(JWT 소유)&lt;/font&gt;&lt;/div&gt;" style="text;html=1;align=center;verticalAlign=middle;resizable=0;points=[];autosize=1;strokeColor=none;fillColor=none;" vertex="1" parent="1">
          <mxGeometry x="-643.5" y="330" width="110" height="40" as="geometry" />
        </mxCell>
        <mxCell id="UOgNXcdXewa_iAYpPX4r-21" value="" style="edgeStyle=orthogonalEdgeStyle;rounded=0;orthogonalLoop=1;jettySize=auto;html=1;strokeColor=#2128FF;" edge="1" parent="1" source="UOgNXcdXewa_iAYpPX4r-20" target="UOgNXcdXewa_iAYpPX4r-6">
          <mxGeometry relative="1" as="geometry">
            <Array as="points">
              <mxPoint x="-590" y="480" />
              <mxPoint x="-590" y="480" />
            </Array>
          </mxGeometry>
        </mxCell>
        <mxCell id="UOgNXcdXewa_iAYpPX4r-20" value="client #2" style="rounded=0;whiteSpace=wrap;html=1;" vertex="1" parent="1">
          <mxGeometry x="-770" y="440" width="120" height="60" as="geometry" />
        </mxCell>
        <mxCell id="UOgNXcdXewa_iAYpPX4r-22" value="&lt;font style=&quot;color: rgb(57, 35, 255);&quot;&gt;처음 로그인&lt;/font&gt;" style="text;html=1;align=center;verticalAlign=middle;resizable=0;points=[];autosize=1;strokeColor=none;fillColor=none;" vertex="1" parent="1">
          <mxGeometry x="-633.5" y="440" width="90" height="30" as="geometry" />
        </mxCell>
        <mxCell id="UOgNXcdXewa_iAYpPX4r-23" value="" style="endArrow=classic;html=1;rounded=0;entryX=0;entryY=0.5;entryDx=0;entryDy=0;" edge="1" parent="1">
          <mxGeometry width="50" height="50" relative="1" as="geometry">
            <mxPoint x="-400" y="519.47" as="sourcePoint" />
            <mxPoint x="-290" y="519.47" as="targetPoint" />
          </mxGeometry>
        </mxCell>
        <mxCell id="UOgNXcdXewa_iAYpPX4r-25" value="" style="endArrow=classic;html=1;rounded=0;entryX=0;entryY=0.5;entryDx=0;entryDy=0;strokeColor=light-dark(#f718ce, #ededed);" edge="1" parent="1">
          <mxGeometry width="50" height="50" relative="1" as="geometry">
            <mxPoint x="-410" y="380" as="sourcePoint" />
            <mxPoint x="-300" y="380" as="targetPoint" />
          </mxGeometry>
        </mxCell>
        <mxCell id="UOgNXcdXewa_iAYpPX4r-26" value="" style="endArrow=none;html=1;rounded=0;entryX=0.5;entryY=0;entryDx=0;entryDy=0;exitX=0.5;exitY=1;exitDx=0;exitDy=0;" edge="1" parent="1" source="UOgNXcdXewa_iAYpPX4r-4" target="UOgNXcdXewa_iAYpPX4r-7">
          <mxGeometry width="50" height="50" relative="1" as="geometry">
            <mxPoint x="-540" y="430" as="sourcePoint" />
            <mxPoint x="-490" y="380" as="targetPoint" />
          </mxGeometry>
        </mxCell>
        <mxCell id="UOgNXcdXewa_iAYpPX4r-27" value="@AuthenticationPrincipal 사용가능" style="text;html=1;align=center;verticalAlign=middle;resizable=0;points=[];autosize=1;strokeColor=none;fillColor=none;" vertex="1" parent="1">
          <mxGeometry x="-345" y="220" width="210" height="30" as="geometry" />
        </mxCell>
        <mxCell id="UOgNXcdXewa_iAYpPX4r-30" value="" style="endArrow=classic;html=1;rounded=0;exitX=1;exitY=0.5;exitDx=0;exitDy=0;entryX=0.051;entryY=0.593;entryDx=0;entryDy=0;entryPerimeter=0;strokeColor=light-dark(#2825e9, #ededed);" edge="1" parent="1" source="UOgNXcdXewa_iAYpPX4r-13" target="UOgNXcdXewa_iAYpPX4r-2">
          <mxGeometry width="50" height="50" relative="1" as="geometry">
            <mxPoint x="80" y="430" as="sourcePoint" />
            <mxPoint x="130" y="380" as="targetPoint" />
          </mxGeometry>
        </mxCell>
        <mxCell id="UOgNXcdXewa_iAYpPX4r-31" value="" style="endArrow=classic;html=1;rounded=0;exitX=1;exitY=0.5;exitDx=0;exitDy=0;entryX=-0.014;entryY=0.401;entryDx=0;entryDy=0;entryPerimeter=0;strokeColor=light-dark(#f221b0, #ededed);" edge="1" parent="1" source="UOgNXcdXewa_iAYpPX4r-7" target="UOgNXcdXewa_iAYpPX4r-2">
          <mxGeometry width="50" height="50" relative="1" as="geometry">
            <mxPoint x="-120" y="430" as="sourcePoint" />
            <mxPoint x="-70" y="380" as="targetPoint" />
          </mxGeometry>
        </mxCell>
        <mxCell id="UOgNXcdXewa_iAYpPX4r-34" value="&lt;font style=&quot;color: light-dark(rgb(240, 15, 15), rgb(237, 237, 237));&quot;&gt;3. 인증 요청&lt;/font&gt;" style="text;html=1;align=center;verticalAlign=middle;resizable=0;points=[];autosize=1;strokeColor=none;fillColor=none;" vertex="1" parent="1">
          <mxGeometry x="310" y="108" width="90" height="30" as="geometry" />
        </mxCell>
        <mxCell id="UOgNXcdXewa_iAYpPX4r-35" value="" style="endArrow=classic;html=1;rounded=0;strokeColor=light-dark(#db1a1a, #ededed);" edge="1" parent="1">
          <mxGeometry width="50" height="50" relative="1" as="geometry">
            <mxPoint x="421" y="83" as="sourcePoint" />
            <mxPoint x="421" y="170" as="targetPoint" />
          </mxGeometry>
        </mxCell>
        <mxCell id="UOgNXcdXewa_iAYpPX4r-38" value="&lt;font style=&quot;color: light-dark(rgb(219, 20, 20), rgb(237, 237, 237));&quot;&gt;4. 유저정보&lt;/font&gt;&lt;div&gt;&lt;font style=&quot;color: light-dark(rgb(219, 20, 20), rgb(237, 237, 237));&quot;&gt;전달&lt;/font&gt;&lt;/div&gt;" style="text;html=1;align=center;verticalAlign=middle;resizable=0;points=[];autosize=1;strokeColor=none;fillColor=none;" vertex="1" parent="1">
          <mxGeometry x="415" y="103" width="80" height="40" as="geometry" />
        </mxCell>
        <mxCell id="UOgNXcdXewa_iAYpPX4r-41" value="" style="edgeStyle=orthogonalEdgeStyle;rounded=0;orthogonalLoop=1;jettySize=auto;html=1;strokeColor=light-dark(#ef3434, #ededed);" edge="1" parent="1" source="UOgNXcdXewa_iAYpPX4r-39" target="UOgNXcdXewa_iAYpPX4r-2">
          <mxGeometry relative="1" as="geometry">
            <Array as="points">
              <mxPoint x="700" y="580" />
              <mxPoint x="700" y="580" />
            </Array>
          </mxGeometry>
        </mxCell>
        <mxCell id="UOgNXcdXewa_iAYpPX4r-39" value="SecuritContext&lt;br&gt;Holder" style="rounded=0;whiteSpace=wrap;html=1;" vertex="1" parent="1">
          <mxGeometry x="540" y="550" width="120" height="60" as="geometry" />
        </mxCell>
        <mxCell id="UOgNXcdXewa_iAYpPX4r-40" value="" style="endArrow=classic;html=1;rounded=0;exitX=1.008;exitY=0.77;exitDx=0;exitDy=0;exitPerimeter=0;entryX=0;entryY=0.5;entryDx=0;entryDy=0;strokeColor=light-dark(#e92b2b, #ededed);" edge="1" parent="1" source="UOgNXcdXewa_iAYpPX4r-5" target="UOgNXcdXewa_iAYpPX4r-39">
          <mxGeometry width="50" height="50" relative="1" as="geometry">
            <mxPoint x="490" y="460" as="sourcePoint" />
            <mxPoint x="540" y="410" as="targetPoint" />
          </mxGeometry>
        </mxCell>
        <mxCell id="UOgNXcdXewa_iAYpPX4r-45" value="" style="edgeStyle=orthogonalEdgeStyle;rounded=0;orthogonalLoop=1;jettySize=auto;html=1;strokeColor=#491CFF;" edge="1" parent="1" source="UOgNXcdXewa_iAYpPX4r-42" target="UOgNXcdXewa_iAYpPX4r-1">
          <mxGeometry relative="1" as="geometry">
            <Array as="points">
              <mxPoint x="-30" y="200" />
              <mxPoint x="-30" y="200" />
            </Array>
          </mxGeometry>
        </mxCell>
        <mxCell id="UOgNXcdXewa_iAYpPX4r-42" value="UserDetailService&lt;div&gt;(loadByUsername에서 사용자 검증)&lt;/div&gt;" style="rounded=0;whiteSpace=wrap;html=1;" vertex="1" parent="1">
          <mxGeometry x="-110" y="103" width="120" height="60" as="geometry" />
        </mxCell>
        <mxCell id="UOgNXcdXewa_iAYpPX4r-46" value="&lt;font style=&quot;color: light-dark(rgb(50, 83, 245), rgb(237, 237, 237));&quot;&gt;인증성공&lt;/font&gt;" style="text;html=1;align=center;verticalAlign=middle;resizable=0;points=[];autosize=1;strokeColor=none;fillColor=none;" vertex="1" parent="1">
          <mxGeometry x="60" y="440" width="70" height="30" as="geometry" />
        </mxCell>
        <mxCell id="UOgNXcdXewa_iAYpPX4r-47" value="client #3" style="rounded=0;whiteSpace=wrap;html=1;" vertex="1" parent="1">
          <mxGeometry x="-770" y="530" width="120" height="60" as="geometry" />
        </mxCell>
        <mxCell id="UOgNXcdXewa_iAYpPX4r-49" value="" style="edgeStyle=orthogonalEdgeStyle;rounded=0;orthogonalLoop=1;jettySize=auto;html=1;strokeColor=light-dark(#ff1414, #ededed);" edge="1" parent="1">
          <mxGeometry relative="1" as="geometry">
            <mxPoint x="-650.5" y="570" as="sourcePoint" />
            <mxPoint x="-533.5" y="570" as="targetPoint" />
            <Array as="points">
              <mxPoint x="-590.5" y="570" />
              <mxPoint x="-590.5" y="570" />
            </Array>
          </mxGeometry>
        </mxCell>
        <mxCell id="UOgNXcdXewa_iAYpPX4r-50" value="&lt;font style=&quot;color: light-dark(rgb(255, 26, 26), rgb(237, 237, 237));&quot;&gt;소셜로그인&lt;/font&gt;" style="text;html=1;align=center;verticalAlign=middle;resizable=0;points=[];autosize=1;strokeColor=none;fillColor=none;" vertex="1" parent="1">
          <mxGeometry x="-628.5" y="530" width="80" height="30" as="geometry" />
        </mxCell>
        <mxCell id="UOgNXcdXewa_iAYpPX4r-51" value="&lt;font style=&quot;color: light-dark(rgb(243, 18, 18), rgb(237, 237, 237));&quot;&gt;인증실패&lt;/font&gt;" style="text;html=1;align=center;verticalAlign=middle;resizable=0;points=[];autosize=1;strokeColor=none;fillColor=none;" vertex="1" parent="1">
          <mxGeometry x="60" y="584" width="70" height="30" as="geometry" />
        </mxCell>
        <mxCell id="UOgNXcdXewa_iAYpPX4r-52" value="&lt;font style=&quot;color: rgb(255, 7, 24);&quot;&gt;5. spring security&lt;/font&gt;&lt;div&gt;&lt;font style=&quot;color: rgb(255, 7, 24);&quot;&gt;인증 등록&lt;/font&gt;&lt;/div&gt;" style="text;html=1;align=center;verticalAlign=middle;resizable=0;points=[];autosize=1;strokeColor=none;fillColor=none;" vertex="1" parent="1">
          <mxGeometry x="450" y="584" width="110" height="40" as="geometry" />
        </mxCell>
        <mxCell id="UOgNXcdXewa_iAYpPX4r-53" value="&lt;font style=&quot;color: rgb(57, 35, 255);&quot;&gt;로그인 인증&lt;/font&gt;" style="text;html=1;align=center;verticalAlign=middle;resizable=0;points=[];autosize=1;strokeColor=none;fillColor=none;" vertex="1" parent="1">
          <mxGeometry x="-140" y="180" width="90" height="30" as="geometry" />
        </mxCell>
        <mxCell id="UOgNXcdXewa_iAYpPX4r-54" value="&lt;font style=&quot;color: rgb(57, 35, 255);&quot;&gt;인증 성공&lt;/font&gt;" style="text;html=1;align=center;verticalAlign=middle;resizable=0;points=[];autosize=1;strokeColor=none;fillColor=none;" vertex="1" parent="1">
          <mxGeometry x="-40" y="180" width="70" height="30" as="geometry" />
        </mxCell>
        <mxCell id="UOgNXcdXewa_iAYpPX4r-55" value="&lt;font style=&quot;color: rgb(255, 73, 242);&quot;&gt;Spring Security&lt;/font&gt;&lt;div&gt;&lt;font style=&quot;color: rgb(255, 73, 242);&quot;&gt;등록&lt;/font&gt;&lt;/div&gt;" style="text;html=1;align=center;verticalAlign=middle;resizable=0;points=[];autosize=1;strokeColor=none;fillColor=none;" vertex="1" parent="1">
          <mxGeometry x="-400" y="343" width="100" height="40" as="geometry" />
        </mxCell>
        <mxCell id="UOgNXcdXewa_iAYpPX4r-56" value="&lt;font style=&quot;color: light-dark(rgb(41, 71, 224), rgb(237, 237, 237));&quot;&gt;처음로그인&lt;/font&gt; &amp;amp; &lt;font style=&quot;color: light-dark(rgb(243, 18, 18), rgb(237, 237, 237));&quot;&gt;소셜로그인&lt;/font&gt;" style="text;html=1;align=center;verticalAlign=middle;resizable=0;points=[];autosize=1;strokeColor=none;fillColor=none;" vertex="1" parent="1">
          <mxGeometry x="-430" y="530" width="160" height="30" as="geometry" />
        </mxCell>
      </root>
    </mxGraphModel>
  </diagram>
</mxfile>
